<?xml version="1.0" encoding="UTF-8"?>
<svg version="1.1" xmlns="http://www.w3.org/2000/svg" width="1024" height="1024">
<path d="M0 0 C1.20390381 0.1330957 2.40780762 0.26619141 3.64819336 0.40332031 C69.40002002 8.04083516 138.20244902 31.54033552 189.9375 73.8125 C202.76256775 84.06651355 215.36859297 93.84845328 230.05078125 101.31640625 C232.9375 102.8125 232.9375 102.8125 233.9375 103.8125 C234.03537909 106.56888515 234.06743232 109.30020839 234.05775452 112.05702209 C234.05903615 113.36912404 234.05903615 113.36912404 234.06034368 114.70773309 C234.06200117 117.66202793 234.05647273 120.61626697 234.05102539 123.57055664 C234.05074355 125.6790517 234.05090119 127.78754686 234.0514679 129.89604187 C234.051756 135.63960966 234.04585726 141.38315676 234.03889394 147.12671971 C234.03266246 153.12186788 234.03205677 159.11701646 234.03086853 165.11216736 C234.0277546 176.47358096 234.01954039 187.834985 234.00951904 199.19639438 C233.9983598 212.12724646 233.99284793 225.05809898 233.98782361 237.98895466 C233.97735783 264.59680842 233.9597572 291.20465368 233.9375 317.8125 C232.51468948 317.51617569 231.093034 317.21430256 229.671875 316.91015625 C228.88006836 316.74265869 228.08826172 316.57516113 227.27246094 316.40258789 C225.10903265 315.85584948 223.21771587 315.16415336 221.1875 314.25 C218.36312217 313.00075596 215.97112138 312.2721396 212.9375 311.8125 C212.9375 311.1525 212.9375 310.4925 212.9375 309.8125 C212.256875 309.874375 211.57625 309.93625 210.875 310 C207.10793618 309.75954912 204.35665085 308.36665948 200.9375 306.8125 C199.61473944 306.43941369 198.28517923 306.08203585 196.9375 305.8125 C196.9375 305.1525 196.9375 304.4925 196.9375 303.8125 C195.885625 303.9053125 195.885625 303.9053125 194.8125 304 C191.26762637 303.76881259 189.06930564 302.44364877 185.9375 300.8125 C183.20177415 300.11342586 183.20177415 300.11342586 180.9375 299.8125 C180.9375 299.1525 180.9375 298.4925 180.9375 297.8125 C179.9165625 297.9053125 179.9165625 297.9053125 178.875 298 C175.14175109 297.76170752 172.28190287 296.34806241 168.9375 294.8125 C162.3823733 292.03153716 155.79272768 289.73779799 148.9375 287.8125 C148.9375 287.1525 148.9375 286.4925 148.9375 285.8125 C148.215625 285.85375 147.49375 285.895 146.75 285.9375 C143.73020631 285.80328695 141.66814271 285.06079381 138.9375 283.8125 C138.9375 283.1525 138.9375 282.4925 138.9375 281.8125 C138.215625 281.874375 137.49375 281.93625 136.75 282 C133.3753284 281.77502189 131.75441548 280.61821505 128.9375 278.8125 C126.74619466 278.11670546 126.74619466 278.11670546 124.9375 277.8125 C124.9375 277.1525 124.9375 276.4925 124.9375 275.8125 C123.6175 275.8125 122.2975 275.8125 120.9375 275.8125 C120.9375 275.1525 120.9375 274.4925 120.9375 273.8125 C119.6175 273.8125 118.2975 273.8125 116.9375 273.8125 C116.9375 273.1525 116.9375 272.4925 116.9375 271.8125 C115.6175 271.8125 114.2975 271.8125 112.9375 271.8125 C112.9375 271.1525 112.9375 270.4925 112.9375 269.8125 C112.40125 269.709375 111.865 269.60625 111.3125 269.5 C108.31247956 268.63157303 105.6995465 267.25629704 102.9375 265.8125 C102.9375 265.1525 102.9375 264.4925 102.9375 263.8125 C101.6175 263.8125 100.2975 263.8125 98.9375 263.8125 C98.9375 263.1525 98.9375 262.4925 98.9375 261.8125 C98.31875 261.668125 97.7 261.52375 97.0625 261.375 C94.9375 260.8125 94.9375 260.8125 92.9375 259.8125 C92.9375 259.1525 92.9375 258.4925 92.9375 257.8125 C92.31875 257.668125 91.7 257.52375 91.0625 257.375 C88.9375 256.8125 88.9375 256.8125 86.9375 255.8125 C86.9375 255.1525 86.9375 254.4925 86.9375 253.8125 C86.31875 253.668125 85.7 253.52375 85.0625 253.375 C82.9375 252.8125 82.9375 252.8125 80.9375 251.8125 C80.9375 251.1525 80.9375 250.4925 80.9375 249.8125 C80.31875 249.668125 79.7 249.52375 79.0625 249.375 C76.9375 248.8125 76.9375 248.8125 74.9375 247.8125 C74.9375 247.1525 74.9375 246.4925 74.9375 245.8125 C73.9475 245.8125 72.9575 245.8125 71.9375 245.8125 C71.9375 245.1525 71.9375 244.4925 71.9375 243.8125 C70.2875 243.1525 68.6375 242.4925 66.9375 241.8125 C66.9375 241.1525 66.9375 240.4925 66.9375 239.8125 C65.8546875 239.44125 65.8546875 239.44125 64.75 239.0625 C61.66143418 237.68980408 59.42738582 236.08896704 56.9375 233.8125 C56.9375 233.1525 56.9375 232.4925 56.9375 231.8125 C56.2775 231.8125 55.6175 231.8125 54.9375 231.8125 C54.9375 231.1525 54.9375 230.4925 54.9375 229.8125 C54.2775 229.8125 53.6175 229.8125 52.9375 229.8125 C52.9375 229.1525 52.9375 228.4925 52.9375 227.8125 C52.2775 227.8125 51.6175 227.8125 50.9375 227.8125 C50.9375 227.1525 50.9375 226.4925 50.9375 225.8125 C50.08140137 225.44318359 50.08140137 225.44318359 49.20800781 225.06640625 C46.5590719 223.60351003 44.75201454 221.88604681 42.609375 219.75 C41.81015625 218.95335937 41.0109375 218.15671875 40.1875 217.3359375 C39.3625 216.50320313 38.5375 215.67046875 37.6875 214.8125 C36.42679688 213.56339844 36.42679688 213.56339844 35.140625 212.2890625 C34.3465625 211.49242187 33.5525 210.69578125 32.734375 209.875 C32.00573242 209.14410156 31.27708984 208.41320312 30.52636719 207.66015625 C28.9375 205.8125 28.9375 205.8125 28.9375 203.8125 C28.2775 203.8125 27.6175 203.8125 26.9375 203.8125 C26.9375 203.1525 26.9375 202.4925 26.9375 201.8125 C26.2775 201.8125 25.6175 201.8125 24.9375 201.8125 C24.9375 201.1525 24.9375 200.4925 24.9375 199.8125 C24.2775 199.8125 23.6175 199.8125 22.9375 199.8125 C22.9375 199.1525 22.9375 198.4925 22.9375 197.8125 C22.2775 197.8125 21.6175 197.8125 20.9375 197.8125 C16.9375 193.45955882 16.9375 193.45955882 16.9375 189.8125 C16.2775 189.8125 15.6175 189.8125 14.9375 189.8125 C14.9375 189.1525 14.9375 188.4925 14.9375 187.8125 C14.2775 187.8125 13.6175 187.8125 12.9375 187.8125 C10.9375 184.8125 10.9375 184.8125 10.9375 181.8125 C10.2775 181.8125 9.6175 181.8125 8.9375 181.8125 C6.9375 178.8125 6.9375 178.8125 6.9375 175.8125 C6.2775 175.8125 5.6175 175.8125 4.9375 175.8125 C3.4296875 173.94921875 3.4296875 173.94921875 1.8125 171.5 C1.27367187 170.69949219 0.73484375 169.89898438 0.1796875 169.07421875 C-1.0625 166.8125 -1.0625 166.8125 -1.0625 163.8125 C-1.7225 163.8125 -2.3825 163.8125 -3.0625 163.8125 C-5.0625 160.8125 -5.0625 160.8125 -5.0625 157.8125 C-5.7225 157.8125 -6.3825 157.8125 -7.0625 157.8125 C-7.0625 156.4925 -7.0625 155.1725 -7.0625 153.8125 C-7.7225 153.8125 -8.3825 153.8125 -9.0625 153.8125 C-10.0701952 152.0460343 -11.06841714 150.27416177 -12.0625 148.5 C-12.619375 147.51386719 -13.17625 146.52773438 -13.75 145.51171875 C-15.0625 142.8125 -15.0625 142.8125 -15.0625 139.8125 C-15.7225 139.8125 -16.3825 139.8125 -17.0625 139.8125 C-17.0625 138.4925 -17.0625 137.1725 -17.0625 135.8125 C-17.7225 135.8125 -18.3825 135.8125 -19.0625 135.8125 C-19.0625 134.4925 -19.0625 133.1725 -19.0625 131.8125 C-19.7225 131.8125 -20.3825 131.8125 -21.0625 131.8125 C-21.454375 130.719375 -21.84625 129.62625 -22.25 128.5 C-23.53007054 125.0601896 -24.99926505 121.75760324 -26.5625 118.4375 C-28.59194411 114.05049805 -30.08749325 109.71645682 -31.3828125 105.06640625 C-32.07562574 102.5896815 -32.07562574 102.5896815 -33.5625 99.5 C-35.42222203 94.92818333 -36.39301894 90.32757727 -37.4140625 85.5078125 C-37.79092337 82.91004507 -37.79092337 82.91004507 -39.0625 81.8125 C-39.75188035 78.39557129 -40.36109618 74.9730646 -40.95703125 71.5390625 C-41.32750784 67.86990655 -41.32750784 67.86990655 -43.0625 64.8125 C-43.38347751 62.49432911 -43.57470956 60.17470643 -43.78125 57.84375 C-43.85315837 55.82069407 -43.85315837 55.82069407 -45.0625 54.8125 C-45.2719361 52.83740127 -45.43053822 50.85678318 -45.5625 48.875 C-45.73985084 44.69082585 -45.73985084 44.69082585 -47.0625 40.8125 C-47.3271988 37.40082652 -47.50665224 33.99564504 -47.66796875 30.578125 C-47.79937954 26.56498397 -47.79937954 26.56498397 -49.0625 22.8125 C-49.53724133 16.77334865 -49.04838121 11.52190849 -47.0625 5.8125 C-46.4025 5.8125 -45.7425 5.8125 -45.0625 5.8125 C-45.0625 5.1525 -45.0625 4.4925 -45.0625 3.8125 C-44.4025 3.8125 -43.7425 3.8125 -43.0625 3.8125 C-43.0625 3.1525 -43.0625 2.4925 -43.0625 1.8125 C-39.49656278 0.22333232 -36.45049385 -0.52410485 -32.5625 -0.8125 C-31.6446875 -0.88726563 -30.726875 -0.96203125 -29.78125 -1.0390625 C-19.7606512 -1.43904438 -9.96624071 -1.10584413 0 0 Z " fill="#58FDFE" transform="translate(262.0625,549.1875)"/>
<path d="M0 0 C1.58788921 0.00502753 3.17577996 0.00958821 4.76367188 0.01367188 C8.61332025 0.02457245 12.46289253 0.04176717 16.3125 0.0625 C16.33718857 4.5831665 16.35535449 9.1037939 16.36743164 13.62451172 C16.37246552 15.16293013 16.37929308 16.70134375 16.38793945 18.23974609 C16.40004639 20.44890526 16.40573769 22.65800126 16.41015625 24.8671875 C16.41531754 25.55682587 16.42047882 26.24646423 16.42579651 26.95700073 C16.42637171 31.83475659 16.42637171 31.83475659 15.3125 34.0625 C15.10532822 36.73271407 14.93872225 39.38845835 14.8125 42.0625 C14.44763514 49.79222973 14.44763514 49.79222973 13.3125 52.0625 C13.00204474 54.65393905 12.80276088 57.24621732 12.59375 59.84765625 C12.3125 62.0625 12.3125 62.0625 11.3125 63.0625 C11.10645915 64.39031878 10.9462041 65.72545895 10.8125 67.0625 C10.42361111 70.95138889 10.42361111 70.95138889 9.3125 72.0625 C9.1475 73.2175 8.9825 74.3725 8.8125 75.5625 C8.3125 79.0625 8.3125 79.0625 7.3125 80.0625 C7.18875 81.073125 7.065 82.08375 6.9375 83.125 C6.38229013 86.62282216 5.44536529 89.48526751 4.1328125 92.75390625 C3.14698288 95.52831248 2.48557422 98.32162082 1.8125 101.1875 C0.76826596 105.53303647 -0.57846075 109.10805142 -2.6875 113.0625 C-3.50766565 115.33937777 -4.25266264 117.63329623 -4.9921875 119.9375 C-5.78455944 122.3591311 -6.70228402 124.71313882 -7.6875 127.0625 C-8.3475 127.0625 -9.0075 127.0625 -9.6875 127.0625 C-9.8421875 128.0834375 -9.8421875 128.0834375 -10 129.125 C-11.48992192 135.49103002 -14.73641331 141.26785609 -17.6875 147.0625 C-18.35509695 148.39536778 -19.02201668 149.72857565 -19.6875 151.0625 C-20.3475 151.0625 -21.0075 151.0625 -21.6875 151.0625 C-21.6875 152.3825 -21.6875 153.7025 -21.6875 155.0625 C-22.3475 155.0625 -23.0075 155.0625 -23.6875 155.0625 C-23.8421875 155.866875 -23.8421875 155.866875 -24 156.6875 C-24.86842697 159.68752044 -26.24370296 162.3004535 -27.6875 165.0625 C-28.3475 165.0625 -29.0075 165.0625 -29.6875 165.0625 C-29.831875 165.68125 -29.97625 166.3 -30.125 166.9375 C-30.6875 169.0625 -30.6875 169.0625 -31.6875 171.0625 C-32.3475 171.0625 -33.0075 171.0625 -33.6875 171.0625 C-33.831875 171.68125 -33.97625 172.3 -34.125 172.9375 C-34.6875 175.0625 -34.6875 175.0625 -35.6875 177.0625 C-36.3475 177.0625 -37.0075 177.0625 -37.6875 177.0625 C-37.831875 177.68125 -37.97625 178.3 -38.125 178.9375 C-38.6875 181.0625 -38.6875 181.0625 -39.6875 183.0625 C-40.3475 183.0625 -41.0075 183.0625 -41.6875 183.0625 C-41.97625 183.825625 -42.265 184.58875 -42.5625 185.375 C-43.6875 188.0625 -43.6875 188.0625 -45.6875 191.0625 C-46.3475 191.0625 -47.0075 191.0625 -47.6875 191.0625 C-47.6875 191.7225 -47.6875 192.3825 -47.6875 193.0625 C-48.3475 193.0625 -49.0075 193.0625 -49.6875 193.0625 C-49.790625 193.64 -49.89375 194.2175 -50 194.8125 C-50.79646465 197.41911158 -51.87815277 199.0360311 -53.6875 201.0625 C-54.3475 201.0625 -55.0075 201.0625 -55.6875 201.0625 C-55.6875 201.7225 -55.6875 202.3825 -55.6875 203.0625 C-56.3475 203.0625 -57.0075 203.0625 -57.6875 203.0625 C-57.6875 203.7225 -57.6875 204.3825 -57.6875 205.0625 C-58.3475 205.0625 -59.0075 205.0625 -59.6875 205.0625 C-59.6875 205.7225 -59.6875 206.3825 -59.6875 207.0625 C-60.3475 207.0625 -61.0075 207.0625 -61.6875 207.0625 C-61.94273437 207.64225586 -62.19796875 208.22201172 -62.4609375 208.81933594 C-63.81334777 211.29265312 -65.32482524 212.95852109 -67.3125 214.953125 C-68.01890625 215.66210938 -68.7253125 216.37109375 -69.453125 217.1015625 C-70.19046875 217.83117187 -70.9278125 218.56078125 -71.6875 219.3125 C-72.42484375 220.05757812 -73.1621875 220.80265625 -73.921875 221.5703125 C-74.62828125 222.27414062 -75.3346875 222.97796875 -76.0625 223.703125 C-76.70960938 224.34797852 -77.35671875 224.99283203 -78.0234375 225.65722656 C-79.6875 227.0625 -79.6875 227.0625 -81.6875 227.0625 C-81.6875 227.7225 -81.6875 228.3825 -81.6875 229.0625 C-82.3475 229.0625 -83.0075 229.0625 -83.6875 229.0625 C-83.6875 229.7225 -83.6875 230.3825 -83.6875 231.0625 C-84.3475 231.0625 -85.0075 231.0625 -85.6875 231.0625 C-85.6875 231.7225 -85.6875 232.3825 -85.6875 233.0625 C-86.3475 233.0625 -87.0075 233.0625 -87.6875 233.0625 C-87.6875 233.7225 -87.6875 234.3825 -87.6875 235.0625 C-92.04044118 239.0625 -92.04044118 239.0625 -95.6875 239.0625 C-95.6875 239.7225 -95.6875 240.3825 -95.6875 241.0625 C-96.3475 241.0625 -97.0075 241.0625 -97.6875 241.0625 C-97.6875 241.7225 -97.6875 242.3825 -97.6875 243.0625 C-103.09926471 247.0625 -103.09926471 247.0625 -105.6875 247.0625 C-105.6875 247.7225 -105.6875 248.3825 -105.6875 249.0625 C-108.6875 251.0625 -108.6875 251.0625 -111.6875 251.0625 C-111.6875 251.7225 -111.6875 252.3825 -111.6875 253.0625 C-114.6875 255.0625 -114.6875 255.0625 -117.6875 255.0625 C-117.6875 255.7225 -117.6875 256.3825 -117.6875 257.0625 C-120.6875 259.0625 -120.6875 259.0625 -123.6875 259.0625 C-123.6875 259.7225 -123.6875 260.3825 -123.6875 261.0625 C-130.3125 265.0625 -130.3125 265.0625 -133.6875 265.0625 C-133.6875 265.7225 -133.6875 266.3825 -133.6875 267.0625 C-136.33488916 268.5231285 -137.58198334 269.0625 -140.6875 269.0625 C-140.6875 269.7225 -140.6875 270.3825 -140.6875 271.0625 C-142.59899668 272.0723473 -144.51691569 273.07004495 -146.4375 274.0625 C-147.50484375 274.619375 -148.5721875 275.17625 -149.671875 275.75 C-152.6875 277.0625 -152.6875 277.0625 -156.6875 277.0625 C-156.6875 277.7225 -156.6875 278.3825 -156.6875 279.0625 C-160.05847383 280.56071059 -161.89192119 281.0625 -165.6875 281.0625 C-165.6875 281.7225 -165.6875 282.3825 -165.6875 283.0625 C-169.19526784 284.66605101 -171.83104879 285.28286864 -175.6875 285.0625 C-175.6875 285.7225 -175.6875 286.3825 -175.6875 287.0625 C-179.19526784 288.66605101 -181.83104879 289.28286864 -185.6875 289.0625 C-185.6875 289.7225 -185.6875 290.3825 -185.6875 291.0625 C-186.75291016 291.36994141 -186.75291016 291.36994141 -187.83984375 291.68359375 C-188.75894531 291.95300781 -189.67804688 292.22242188 -190.625 292.5 C-191.54152344 292.76683594 -192.45804688 293.03367187 -193.40234375 293.30859375 C-195.6277493 293.85276051 -195.6277493 293.85276051 -196.6875 295.0625 C-198.35367115 295.10313832 -200.02138095 295.105221 -201.6875 295.0625 C-201.6875 295.7225 -201.6875 296.3825 -201.6875 297.0625 C-202.64849609 297.33513672 -202.64849609 297.33513672 -203.62890625 297.61328125 C-207.69677685 298.79544931 -211.65283929 299.96260232 -215.5 301.75 C-218.55805002 303.00919707 -220.43417878 303.35825647 -223.6875 303.0625 C-223.6875 303.7225 -223.6875 304.3825 -223.6875 305.0625 C-224.59628906 305.31773437 -224.59628906 305.31773437 -225.5234375 305.578125 C-232.447067 307.58065169 -239.14131205 309.97514522 -245.6953125 312.984375 C-249.18812347 314.58713674 -251.83042015 315.41314362 -255.6875 315.0625 C-255.6875 315.7225 -255.6875 316.3825 -255.6875 317.0625 C-258.3275 317.7225 -260.9675 318.3825 -263.6875 319.0625 C-263.99119011 291.29888975 -264.22042969 263.5355284 -264.36105824 235.77059174 C-264.42809079 222.87872292 -264.51947527 209.98788609 -264.66821289 197.09667969 C-264.79779277 185.86053296 -264.88165737 174.62513351 -264.91065043 163.38826036 C-264.92759931 157.43798851 -264.96741779 151.48985442 -265.06199074 145.54026794 C-265.1503129 139.93847378 -265.17743823 134.33969467 -265.15789986 128.73727036 C-265.16147317 126.68284073 -265.18729639 124.62830921 -265.23717117 122.57448196 C-265.58699651 107.42419658 -265.58699651 107.42419658 -262.39972854 103.4613781 C-258.89591166 100.4508432 -254.96227502 98.77525668 -250.6875 97.0625 C-248.67026921 95.87321894 -248.67026921 95.87321894 -247.03125 94.6640625 C-245.62359375 93.68566406 -245.62359375 93.68566406 -244.1875 92.6875 C-238.12990802 88.44355832 -232.27727066 83.95365492 -226.43701172 79.41894531 C-168.52122828 34.51522039 -101.13240182 9.79285239 -28.6875 1.0625 C-27.75107666 0.94688721 -26.81465332 0.83127441 -25.84985352 0.7121582 C-17.25456972 -0.21717173 -8.63282122 -0.04791492 0 0 Z " fill="#58FDFE" transform="translate(792.6875,547.9375)"/>
<path d="M0 0 C1.64452148 0.00773437 1.64452148 0.00773437 3.32226562 0.015625 C11.37777297 0.09513649 11.37777297 0.09513649 13.6875 1.25 C15.19567808 1.38957617 16.70906316 1.47540553 18.22265625 1.53125 C19.11404297 1.56863281 20.00542969 1.60601562 20.92382812 1.64453125 C22.81184353 1.71498932 24.6998644 1.78530122 26.58789062 1.85546875 C27.92303711 1.91154297 27.92303711 1.91154297 29.28515625 1.96875 C30.10508057 1.99904297 30.92500488 2.02933594 31.76977539 2.06054688 C33.6875 2.25 33.6875 2.25 34.6875 3.25 C37.19166935 3.46063107 39.67890081 3.62572077 42.1875 3.75 C49.55236486 4.11486486 49.55236486 4.11486486 50.6875 5.25 C52.49561184 5.45896317 54.30966032 5.61780361 56.125 5.75 C61.46765267 6.14007634 61.46765267 6.14007634 63.6875 7.25 C65.35022703 7.45222356 67.01804185 7.61411387 68.6875 7.75 C73.46527778 8.13888889 73.46527778 8.13888889 75.6875 9.25 C77.61164242 9.5589463 79.54116155 9.83471316 81.47265625 10.09375 C88.52206742 11.14598753 95.2704561 12.81806113 102.125 14.75 C103.36999268 15.09893311 104.61498535 15.44786621 105.89770508 15.80737305 C161.50974871 31.56352784 216.98229104 56.01331168 261.5546875 93.4921875 C262.22943115 94.05196289 262.9041748 94.61173828 263.59936523 95.18847656 C264.920517 96.28845443 266.2306128 97.40189013 267.52758789 98.53027344 C270.94405264 101.43698858 270.94405264 101.43698858 275.1875 102.44140625 C278.86190745 100.69032145 281.68492443 98.21422517 284.75 95.5625 C354.59125158 37.23336484 455.92545366 0.56327119 547.1875 0 C548.35249023 -0.00942627 549.51748047 -0.01885254 550.71777344 -0.02856445 C551.8112207 -0.02429443 552.90466797 -0.02002441 554.03125 -0.015625 C555.00255859 -0.01336914 555.97386719 -0.01111328 556.97460938 -0.00878906 C559.87082954 0.26748824 562.05372979 1.04335459 564.6875 2.25 C564.6875 2.91 564.6875 3.57 564.6875 4.25 C565.3475 4.25 566.0075 4.25 566.6875 4.25 C566.6875 4.91 566.6875 5.57 566.6875 6.25 C567.3475 6.25 568.0075 6.25 568.6875 6.25 C570.88285897 10.65920747 570.96364638 14.75633455 570.91796875 19.578125 C570.91728142 20.76254181 570.91728142 20.76254181 570.9165802 21.97088623 C570.91357001 23.63164787 570.9057208 25.292407 570.89331055 26.953125 C570.87496183 29.50530897 570.87280166 32.0571317 570.87304688 34.609375 C570.86813473 36.22396149 570.86230773 37.83854552 570.85546875 39.453125 C570.85435593 40.2197345 570.8532431 40.98634399 570.85209656 41.77618408 C570.80357994 47.13392006 570.80357994 47.13392006 569.6875 48.25 C567.72525339 48.37305711 565.75882642 48.42997911 563.79296875 48.4609375 C562.54185303 48.48704102 561.2907373 48.51314453 560.00170898 48.54003906 C559.33017792 48.55329224 558.65864685 48.56654541 557.96676636 48.5802002 C498.63641112 49.85089102 440.67819541 63.87536853 386.6875 88.25 C385.16678531 88.91954036 383.64596167 89.58883337 382.125 90.2578125 C356.48240266 101.73476227 332.37121595 117.23163633 310.5 134.80859375 C295.76087383 146.56156033 282.50437336 151.85012994 263.6875 150.25 C252.58016887 148.0779575 244.3455933 140.74424766 236.0625 133.5 C171.39057751 77.20078176 76.9749484 50.66166967 -7.44140625 48.73242188 C-8.54613281 48.69826172 -9.65085938 48.66410156 -10.7890625 48.62890625 C-12.275271 48.59132202 -12.275271 48.59132202 -13.79150391 48.55297852 C-16.3125 48.25 -16.3125 48.25 -19.3125 46.25 C-19.3125 45.59 -19.3125 44.93 -19.3125 44.25 C-19.9725 44.25 -20.6325 44.25 -21.3125 44.25 C-21.3125 43.59 -21.3125 42.93 -21.3125 42.25 C-21.9725 42.25 -22.6325 42.25 -23.3125 42.25 C-25.51793591 36.89017568 -25.64616791 32.07340159 -25.625 26.375 C-25.64111328 25.51519531 -25.65722656 24.65539062 -25.67382812 23.76953125 C-25.67946938 16.33436294 -24.06761542 9.19389427 -19.3125 3.25 C-13.00764292 -0.34905872 -7.13007717 -0.13654247 0 0 Z " fill="#59FCFD" transform="translate(238.3125,470.75)"/>
<path d="M0 0 C8.71459779 6.44880236 17.23589614 13.15342746 25.67578125 19.95703125 C32.62654755 25.5596362 39.64737871 31.0322457 46.81030273 36.36132812 C51.90290097 40.15699252 56.93121183 44.02882705 61.9375 47.9375 C67.79135023 52.507292 73.65986847 57.05585113 79.5625 61.5625 C80.16589203 62.04888947 80.76928406 62.53527893 81.39096069 63.03640747 C84.9702039 65.87176695 88.34876568 68.26706515 92.50537109 70.17822266 C97.81015731 72.87594139 101.98509967 75.75627929 105 81 C107.71865882 92.10511547 106.68352188 103.94417215 106.16729736 115.269104 C105.99193984 119.52497072 105.91545183 123.78256188 105.83007812 128.04101562 C105.6488838 136.36541763 105.35965072 144.68140401 105 153 C101.35880369 151.26552102 98.52020303 149.10223113 95.375 146.5625 C65.02344478 122.78001885 25.73360566 105.9743676 -11.16088867 95.59350586 C-13 95 -13 95 -14 94 C-13.85544351 84.02245249 -11.75890054 73.8817313 -10.3125 64.0234375 C-10.04714298 62.20311473 -9.78192724 60.38277136 -9.5168457 58.56240845 C-8.96408356 54.77161511 -8.40907208 50.98115946 -7.85253906 47.19091797 C-7.13811466 42.32353041 -6.43025804 37.45521268 -5.72413635 32.58661461 C-5.17974422 28.83913603 -4.63150722 25.09222771 -4.0821228 21.34547806 C-3.81927291 19.54903646 -3.55773481 17.75240243 -3.29751587 15.95557785 C-2.93539421 13.45855198 -2.5680169 10.96235583 -2.19921875 8.46630859 C-2.09217621 7.7204248 -1.98513367 6.97454102 -1.87484741 6.20605469 C-1.11420998 1.11420998 -1.11420998 1.11420998 0 0 Z " fill="#59FCFD" transform="translate(392,375)"/>
<path d="M0 0 C0.99 0.495 0.99 0.495 2 1 C2.61679008 3.74474306 3.10423228 6.42755103 3.52807617 9.20410156 C3.66652451 10.06428391 3.80497284 10.92446625 3.94761658 11.81071472 C4.40514173 14.66932489 4.84941613 17.52981595 5.29296875 20.390625 C5.60585445 22.37270414 5.91928201 24.35469782 6.23323059 26.33660889 C6.89041616 30.49874114 7.5410882 34.66182702 8.18725586 38.82568359 C9.01588521 44.16198353 9.86030747 49.49563838 10.70963573 54.82867813 C11.36022779 58.92490876 12.00247474 63.02241416 12.64220619 67.1203537 C12.9502545 69.08713564 13.26087883 71.05351589 13.57411766 73.01947784 C14.01124664 75.77118532 14.4371356 78.52440613 14.86010742 81.27832031 C15.05715271 82.49732277 15.05715271 82.49732277 15.25817871 83.74095154 C15.86131136 87.74802394 16.14516426 91.08104643 15 95 C14.41436279 95.18473877 13.82872559 95.36947754 13.2253418 95.55981445 C-25.27713745 107.80603647 -64.01414937 123.55061699 -95.98046875 148.734375 C-99 151 -99 151 -102 152 C-102.20905882 142.88126427 -102.36870543 133.76336015 -102.46630955 124.64274597 C-102.51316989 120.40696232 -102.57666039 116.1728246 -102.67895508 111.93798828 C-102.77716268 107.84647613 -102.83064148 103.75654069 -102.85389519 99.66394043 C-102.87045246 98.10729149 -102.90278887 96.55072348 -102.95157051 94.99475098 C-103.31776659 82.82386738 -103.31776659 82.82386738 -100.05528259 78.30839539 C-97.79870183 76.27921943 -95.55625863 74.6267116 -93 73 C-91.86342606 72.10270381 -90.73454415 71.19536547 -89.62109375 70.26953125 C-88.56194013 69.44787884 -87.50070185 68.62890731 -86.4375 67.8125 C-81.29445362 63.82010368 -76.22318359 59.75184935 -71.1875 55.625 C-65.01260629 50.57444747 -58.72251411 45.69984003 -52.36499023 40.88208008 C-47.41515881 37.1176672 -42.56140243 33.25199868 -37.75 29.3125 C-31.52642886 24.21836103 -25.22628712 19.25584218 -18.82324219 14.38769531 C-15.89132873 12.15617468 -12.9666949 9.91514656 -10.04077148 7.67578125 C-6.6950794 5.11557533 -3.3476427 2.55765454 0 0 Z " fill="#59FCFD" transform="translate(631,375)"/>
<path d="M0 0 C-1.26485286 13.23489906 -2.73821189 26.42599928 -4.42578125 39.61328125 C-4.65779007 41.44180016 -4.8895702 43.27034811 -5.12113953 45.09892273 C-5.7267741 49.87622566 -6.3355714 54.65312016 -6.94506836 59.42993164 C-7.66783698 65.10018351 -8.38640326 70.77096962 -9.10545158 76.44169426 C-9.6968818 81.1028461 -10.29070837 85.76366933 -10.88967896 90.42385864 C-11.96506935 98.7992711 -13.02892488 107.17514352 -14.02802372 115.56005192 C-14.46372134 119.20936794 -14.90861317 122.85753582 -15.35436058 126.50563622 C-15.56174253 128.22484632 -15.76452002 129.94461875 -15.96245766 131.66494179 C-16.23451683 134.02712405 -16.52211784 136.38692833 -16.81323242 138.74682617 C-16.88904478 139.44241575 -16.96485714 140.13800533 -17.04296684 140.85467339 C-17.41320543 143.74484104 -17.72119553 145.65404355 -19.57417297 147.95332336 C-20.04469589 148.29872665 -20.51521881 148.64412994 -21 149 C-21.86238281 148.29617188 -22.72476563 147.59234375 -23.61328125 146.8671875 C-31.42863197 140.53041665 -39.38736243 134.44198587 -47.51123047 128.5065918 C-53.70886911 123.97162829 -59.83605236 119.35097128 -65.9375 114.6875 C-66.83057861 114.00494141 -67.72365723 113.32238281 -68.64379883 112.61914062 C-70.3449124 111.31887785 -72.04600406 110.0185864 -73.74707031 108.71826172 C-79.82558 104.08231122 -85.95334812 99.51173785 -92.1015625 94.96875 C-93.54687836 93.89583786 -94.99219088 92.82292122 -96.4375 91.75 C-97.11272705 91.2540332 -97.7879541 90.75806641 -98.48364258 90.24707031 C-102.30951561 87.40173592 -105.72023601 84.46302633 -109 81 C-102.56983185 74.92706342 -95.65851618 69.65455186 -88.56640625 64.3984375 C-83.56727219 60.69205083 -78.62896885 56.90771707 -73.6875 53.125 C-66.23992658 47.43344625 -58.73243553 41.83353528 -51.17138672 36.29394531 C-44.27201646 31.22742211 -37.46234912 26.04769441 -30.66235352 20.84887695 C-22.81271089 14.84828412 -14.91490241 8.91410924 -7 3 C-6.25878906 2.39800781 -5.51757812 1.79601562 -4.75390625 1.17578125 C-3 0 -3 0 0 0 Z " fill="#59FCFD" transform="translate(651,172)"/>
<path d="M0 0 C5.2226045 1.63724506 9.18455389 4.87853391 13.5 8.125 C14.32733643 8.74101074 15.15467285 9.35702148 16.00708008 9.99169922 C24.05397631 15.99954586 32.03429574 22.09571114 40.01171875 28.1953125 C44.32248506 31.4888396 48.65407947 34.75306065 53 38 C60.03357221 43.25494707 67.00944572 48.58368862 73.9831543 53.91772461 C80.79106366 59.11148358 87.66597583 64.20791211 94.60864258 69.22021484 C99.65079318 72.89162375 104.37186129 76.81926629 109 81 C105.54260652 84.57814804 101.93954816 87.76859487 98 90.8125 C97.40533936 91.27551514 96.81067871 91.73853027 96.19799805 92.21557617 C94.13633875 93.8160851 92.06898199 95.40896889 90 97 C89.20932129 97.6084375 88.41864258 98.216875 87.60400391 98.84375 C78.1614002 106.09800973 68.66863459 113.27606003 59.0625 120.3125 C53.53986929 124.35895227 48.0630663 128.44719848 42.6875 132.6875 C42.13674805 133.1213501 41.58599609 133.5552002 41.01855469 134.00219727 C38.0350698 136.36243199 35.07725535 138.75139974 32.1328125 141.16015625 C31.49384033 141.67682861 30.85486816 142.19350098 30.1965332 142.72583008 C28.96659713 143.72083992 27.74340398 144.72425966 26.52807617 145.73706055 C24.86328125 147.078125 24.86328125 147.078125 22 149 C21.01 148.67 20.02 148.34 19 148 C16.96541689 132.62081935 14.93107697 117.24160655 12.89701366 101.86235714 C11.95220631 94.71885154 11.00732426 87.57535583 10.06225586 80.43188477 C9.2369446 74.19361824 8.41178419 67.95533179 7.58679277 61.71702296 C7.1514089 58.424834 6.71593524 55.13265698 6.28032494 51.84049797 C5.48191247 45.80627205 4.68436774 39.7719354 3.88925171 33.73727417 C3.29645319 29.23839103 2.69857757 24.74022225 2.09732056 20.24246216 C1.81913543 18.14675657 1.54100552 16.05104365 1.26293945 13.95532227 C1.13440928 13.00206779 1.00587912 12.0488133 0.87345409 11.06667233 C0.75777238 10.19075215 0.64209066 9.31483198 0.52290344 8.41236877 C0.42136113 7.65250451 0.31981882 6.89264025 0.21519947 6.10974979 C0 4 0 4 0 0 Z " fill="#59FCFD" transform="translate(373,172)"/>
<path d="M0 0 C0 45.54 0 91.08 0 138 C-3.78896616 136.48441354 -6.02581333 135.45317392 -9.15234375 133.12890625 C-10.30633667 132.27582886 -10.30633667 132.27582886 -11.48364258 131.40551758 C-12.29341553 130.79732178 -13.10318848 130.18912598 -13.9375 129.5625 C-15.20339966 128.6202356 -15.20339966 128.6202356 -16.49487305 127.65893555 C-23.19773274 122.65005859 -29.80281486 117.52581985 -36.34814453 112.31347656 C-39.1399257 110.09358553 -41.94504618 107.89070731 -44.75 105.6875 C-45.31686523 105.24196777 -45.88373047 104.79643555 -46.46777344 104.33740234 C-57.64287665 95.56138639 -68.87013613 86.85232252 -80.140625 78.19921875 C-84.10640782 75.14903333 -88.0557423 72.07794787 -92 69 C-90.72267654 65.16802962 -89.39435306 64.73724688 -86 62.625 C-80.75523612 59.22986882 -75.75919778 55.6279564 -70.8125 51.8125 C-70.09682861 51.26062012 -69.38115723 50.70874023 -68.64379883 50.14013672 C-67.17096547 49.00210513 -65.6988855 47.86309788 -64.22753906 46.72314453 C-60.5582681 43.88472778 -56.87292582 41.0673898 -53.1875 38.25 C-52.47376221 37.70384033 -51.76002441 37.15768066 -51.0246582 36.5949707 C-46.08940571 32.82189611 -41.12647613 29.08757464 -36.1484375 25.37109375 C-33.02333583 23.01757426 -29.92074734 20.63687172 -26.82055664 18.25073242 C-20.6235876 13.4856884 -14.40161282 8.76241791 -8.0625 4.1875 C-7.47742676 3.76090088 -6.89235352 3.33430176 -6.28955078 2.89477539 C-2.23844343 0 -2.23844343 0 0 0 Z " fill="#59FCFD" transform="translate(497,280)"/>
<path d="M0 0 C0.13479263 1.02902435 0.26958527 2.05804871 0.40846252 3.11825562 C2.12298691 16.20429571 3.8416638 29.2897885 5.5625 42.375 C5.76730232 43.93270615 5.76730232 43.93270615 5.97624207 45.5218811 C9.57499078 72.8885377 13.20296141 100.24845396 17.11938477 127.57177734 C17.25101517 128.49376923 17.38264557 129.41576111 17.51826477 130.36569214 C17.75647827 132.03097077 17.99660044 133.6959782 18.23918152 135.36062622 C18.65651336 138.2716133 19 141.05457725 19 144 C15.48644457 142.72495963 12.73058656 141.25370236 9.76953125 138.98046875 C8.97595215 138.37702637 8.18237305 137.77358398 7.36474609 137.15185547 C6.52250488 136.50361816 5.68026367 135.85538086 4.8125 135.1875 C3.01010506 133.81770615 1.20669961 132.44924104 -0.59765625 131.08203125 C-1.50402832 130.39447754 -2.41040039 129.70692383 -3.34423828 128.99853516 C-7.23374024 126.07157588 -11.1722193 123.21566465 -15.125 120.375 C-15.85871826 119.84737061 -16.59243652 119.31974121 -17.34838867 118.77612305 C-18.82596676 117.71449431 -20.30391105 116.65337507 -21.78222656 115.59277344 C-25.52724197 112.90315647 -29.2631423 110.20093322 -33 107.5 C-37.53375094 104.22461036 -42.06827556 100.9503076 -46.60546875 97.6796875 C-56.10329277 90.83089587 -65.5692708 83.94090542 -75 77 C-74.45541143 73.02890071 -72.59622644 71.25934584 -69.7734375 68.515625 C-68.47212891 67.23558594 -68.47212891 67.23558594 -67.14453125 65.9296875 C-66.23058594 65.04539062 -65.31664062 64.16109375 -64.375 63.25 C-58.9061768 57.91572093 -53.53573947 52.6040164 -48.56884766 46.79589844 C-45.73300848 43.54964369 -42.62600396 40.58252791 -39.5390625 37.578125 C-36.87493063 34.95628094 -34.35107565 32.27926262 -31.921875 29.4375 C-27.17932815 23.95931057 -22.06795252 18.84545409 -16.95556641 13.71533203 C-15.23268155 11.98258239 -13.52073871 10.23944842 -11.80859375 8.49609375 C-10.71159365 7.3925765 -9.61396063 6.28968799 -8.515625 5.1875 C-7.75152313 4.40487793 -7.75152313 4.40487793 -6.97198486 3.60644531 C-3.34273913 0 -3.34273913 0 0 0 Z " fill="#59FCFD" transform="translate(344,174)"/>
<path d="M0 0 C3.43095546 1.47994888 5.65962605 3.41159813 8.2902832 6.04736328 C9.12827957 6.88228302 9.96627594 7.71720276 10.82966614 8.5774231 C12.17661812 9.93515335 12.17661812 9.93515335 13.55078125 11.3203125 C14.48294968 12.25293915 15.4151181 13.1855658 16.37553406 14.14645386 C18.34974456 16.12222735 20.32055661 18.10130844 22.28881836 20.08300781 C24.79173105 22.60280475 27.30106912 25.11607562 29.81281757 27.62706184 C31.75984188 29.57436052 33.70423009 31.524274 35.64778709 33.47503281 C37.01538206 34.84729257 38.38441928 36.21811452 39.75349426 37.58889771 C44.14462706 42.01308813 48.38536548 46.4999328 52.44941711 51.2260437 C54.69565696 53.7958717 57.07509953 56.18708119 59.49609375 58.59375 C59.97450211 59.07074341 60.45291046 59.54773682 60.94581604 60.03918457 C62.44066514 61.52853695 63.93899059 63.01433149 65.4375 64.5 C66.4657298 65.52320139 67.49372626 66.54663733 68.52148438 67.5703125 C71.01164338 70.04957999 73.50492833 72.52567538 76 75 C73.55221796 78.24669424 71.30858877 80.74793627 67.91015625 82.98046875 C67.13269043 83.49939697 66.35522461 84.0183252 65.55419922 84.55297852 C64.73193848 85.09237061 63.90967773 85.6317627 63.0625 86.1875 C56.26003256 90.73982169 49.71788488 95.4404642 43.27734375 100.4921875 C39.58797525 103.35351536 35.76609816 106.01697804 31.9375 108.6875 C25.56034754 113.13704606 19.32107755 117.73947439 13.125 122.4375 C6.31028538 127.59026753 -0.5855484 132.59560959 -7.625 137.4375 C-8.43694824 137.99945068 -9.24889648 138.56140137 -10.08544922 139.14038086 C-10.8332666 139.64964111 -11.58108398 140.15890137 -12.3515625 140.68359375 C-13.00979004 141.13275146 -13.66801758 141.58190918 -14.34619141 142.04467773 C-16 143 -16 143 -18 143 C-17.25232087 131.53697782 -15.67833092 120.17517275 -14.19921875 108.7890625 C-13.91855096 106.61366519 -13.63810387 104.43823939 -13.35786438 102.26278687 C-12.77022522 97.70525368 -12.18086475 93.14794782 -11.59008789 88.59082031 C-10.84491545 82.84270666 -10.1025445 77.0942362 -9.3612957 71.34561539 C-6.29367109 47.55668197 -3.20758604 23.7705204 0 0 Z " fill="#59FCFD" transform="translate(680,174)"/>
<path d="M0 0 C5.66628637 3.50112003 10.89425607 7.43961593 16.0625 11.625 C26.08560467 19.73468303 36.43356878 27.38399533 46.82397461 35.01416016 C47.60393799 35.5869873 48.38390137 36.15981445 49.1875 36.75 C49.96939697 37.32411621 50.75129395 37.89823242 51.55688477 38.48974609 C59.5405206 44.36817175 67.41979742 50.38110725 75.29296875 56.40625 C79.50837955 59.63147522 83.74667892 62.82497527 88 66 C86.22615 69.89588141 84.25553673 71.55519766 80.75 74.0625 C79.65643206 74.85783727 78.56403036 75.65477998 77.47265625 76.453125 C76.61631592 77.07670898 76.61631592 77.07670898 75.74267578 77.71289062 C72.84438779 79.85351465 70.01559785 82.08040129 67.1875 84.3125 C66.60653564 84.77011719 66.02557129 85.22773438 65.42700195 85.69921875 C61.07922226 89.13133239 56.75748738 92.59552144 52.4375 96.0625 C46.84753146 100.54749139 41.20388641 104.94979416 35.51171875 109.3046875 C31.32254322 112.51253802 27.16266613 115.7578775 23 119 C21.46879624 120.19016366 19.93754684 121.38026861 18.40625 122.5703125 C15.60871171 124.74522794 12.81728209 126.92755803 10.03125 129.1171875 C8.85424799 130.03656246 7.67716986 130.95583997 6.5 131.875 C5.4790625 132.67679688 4.458125 133.47859375 3.40625 134.3046875 C1 136 1 136 -1 136 C-1.02332838 118.41545882 -1.04097887 100.83092246 -1.05181217 83.24636936 C-1.05697526 75.08212836 -1.0640182 66.91789695 -1.07543945 58.75366211 C-1.0853859 51.64028716 -1.09185333 44.52691915 -1.09408849 37.41353744 C-1.09539567 33.64474276 -1.09848194 29.87596797 -1.10573006 26.10717964 C-1.11374316 21.90681184 -1.11399116 17.70647892 -1.11352539 13.50610352 C-1.11712067 12.24734909 -1.12071594 10.98859467 -1.12442017 9.69169617 C-1.1230455 8.55441071 -1.12167084 7.41712524 -1.12025452 6.24537659 C-1.12117631 5.25076196 -1.1220981 4.25614733 -1.12304783 3.23139286 C-1 1 -1 1 0 0 Z " fill="#5AFCFD" transform="translate(530,281)"/>
<path d="M0 0 C0.06058594 0.77085937 0.12117187 1.54171875 0.18359375 2.3359375 C0.26738281 3.33882813 0.35117187 4.34171875 0.4375 5.375 C0.51871094 6.37273437 0.59992188 7.37046875 0.68359375 8.3984375 C0.84965626 10.97927613 0.84965626 10.97927613 2 13 C2.09353676 16.05140373 2.12571763 19.0798561 2.11352539 22.13134766 C2.11367142 23.07773605 2.11381744 24.02412445 2.1139679 24.99919128 C2.11326942 28.13750475 2.10548002 31.27575937 2.09765625 34.4140625 C2.09579184 36.58596769 2.09436805 38.75787329 2.09336853 40.92977905 C2.08954516 46.65414587 2.07971639 52.37848742 2.06866455 58.10284424 C2.05844657 63.94095518 2.05387008 69.7790702 2.04882812 75.6171875 C2.03809398 87.07813611 2.0210197 98.53906596 2 110 C1.01 110.495 1.01 110.495 0 111 C-1.97338867 110.27832031 -1.97338867 110.27832031 -4.41796875 109.078125 C-5.3291748 108.635896 -6.24038086 108.19366699 -7.17919922 107.73803711 C-8.17193848 107.24698486 -9.16467773 106.75593262 -10.1875 106.25 C-11.22922363 105.74412354 -12.27094727 105.23824707 -13.34423828 104.71704102 C-17.46082681 102.71772366 -21.56955087 100.70257149 -25.67724609 98.68505859 C-43.00940915 90.19179534 -60.66419984 82.46432348 -78.3515625 74.74609375 C-79.1495929 74.39760376 -79.94762329 74.04911377 -80.76983643 73.69006348 C-84.49244869 72.06998294 -88.21802414 70.47820312 -92 69 C-92 68.01 -92 67.02 -92 66 C-89.77290124 64.09237471 -87.56644921 62.38821807 -85.1875 60.6875 C-84.47190918 60.16406006 -83.75631836 59.64062012 -83.01904297 59.10131836 C-81.47916474 57.97553759 -79.93640775 56.85368618 -78.39111328 55.73535156 C-76.03035595 54.02203084 -73.6830983 52.29185167 -71.33984375 50.5546875 C-61.36198693 43.15953019 -51.31339985 35.86463605 -41.23388672 28.60888672 C-38.23662362 26.45020215 -35.24233834 24.28740924 -32.24829102 22.12426758 C-30.76072004 21.04957872 -29.2729304 19.97519246 -27.78491211 18.90112305 C-23.83244022 16.04803145 -19.88306076 13.19076809 -15.9375 10.328125 C-15.11121094 9.72935547 -14.28492188 9.13058594 -13.43359375 8.51367188 C-11.84158547 7.35991307 -10.25040513 6.20501074 -8.66015625 5.04882812 C-7.94730469 4.53255859 -7.23445312 4.01628906 -6.5 3.484375 C-5.55640625 2.79939941 -5.55640625 2.79939941 -4.59375 2.10058594 C-1.55190772 0 -1.55190772 0 0 0 Z " fill="#59FCFD" transform="translate(769,277)"/>
<path d="M0 0 C14.25989789 8.63760335 27.48478776 18.86421279 40.8815918 28.7590332 C51.05958152 36.27063809 61.31524752 43.67534293 71.62524414 51.00463867 C73.87013364 52.60240361 76.10996976 54.20710732 78.34765625 55.81494141 C79.4837799 56.62976768 80.62191841 57.4417896 81.76171875 58.25146484 C83.47335241 59.47048429 85.17508501 60.70221155 86.875 61.9375 C87.86242187 62.64777344 88.84984375 63.35804688 89.8671875 64.08984375 C90.57101562 64.72019531 91.27484375 65.35054688 92 66 C92 66.99 92 67.98 92 69 C91.08750488 69.40089844 90.17500977 69.80179687 89.23486328 70.21484375 C67.26618794 79.87714402 45.4634296 89.83907017 23.7913208 100.14862061 C21.0800024 101.43725669 18.36620976 102.72064594 15.65234375 104.00390625 C11.43320791 105.99906515 7.21578859 107.99777851 3 110 C3 109.34 3 108.68 3 108 C2.34 108 1.68 108 1 108 C-0.97427281 102.23126056 -1.2804747 97.1118505 -1.24291992 91.04150391 C-1.24481827 90.06673096 -1.24671661 89.09195801 -1.24867249 88.08764648 C-1.2523606 84.88386857 -1.24170775 81.68032006 -1.23046875 78.4765625 C-1.2292762 76.24693834 -1.22882395 74.01731367 -1.2290802 71.78768921 C-1.22751897 67.12584264 -1.21925367 62.46407326 -1.20581055 57.80224609 C-1.18876202 51.81300611 -1.18499808 45.82385041 -1.18575573 39.834589 C-1.18548458 35.23655384 -1.18001318 30.63853727 -1.17275429 26.04050827 C-1.16956333 23.83079545 -1.16759922 21.62108051 -1.16686058 19.41136551 C-1.16470488 16.3349163 -1.15597919 13.25855862 -1.14526367 10.18212891 C-1.14571686 9.26164764 -1.14617004 8.34116638 -1.14663696 7.39279175 C-1.11447923 1.11447923 -1.11447923 1.11447923 0 0 Z " fill="#59FCFD" transform="translate(254,277)"/>
<path d="M0 0 C7.36278716 -0.02318417 14.72556643 -0.04094608 22.08838272 -0.05181217 C25.50733989 -0.0570277 28.92627206 -0.0641012 32.34521484 -0.07543945 C36.27701517 -0.0883967 40.20880542 -0.09323922 44.140625 -0.09765625 C45.36678528 -0.10281754 46.59294556 -0.10797882 47.85626221 -0.11329651 C49.56758331 -0.11340981 49.56758331 -0.11340981 51.31347656 -0.11352539 C52.31719299 -0.115746 53.32090942 -0.11796661 54.3550415 -0.12025452 C56.75778487 -0.01101245 58.68670387 0.40824982 61 1 C62.77086988 1.11238371 64.54514997 1.1757525 66.31933594 1.20532227 C67.93267822 1.23559509 67.93267822 1.23559509 69.57861328 1.26647949 C71.26446533 1.29119324 71.26446533 1.29119324 72.984375 1.31640625 C74.02223145 1.33505737 75.06008789 1.3537085 76.12939453 1.3729248 C80.00284386 1.44117506 83.87643201 1.50135404 87.75 1.5625 C96.4125 1.706875 105.075 1.85125 114 2 C114 30.05 114 58.1 114 87 C110.54031765 87 110.0182619 86.51553002 107.40234375 84.4296875 C106.69231201 83.86991211 105.98228027 83.31013672 105.25073242 82.73339844 C104.48736572 82.12012695 103.72399902 81.50685547 102.9375 80.875 C101.30743792 79.58575256 99.6772253 78.29669544 98.046875 77.0078125 C97.21091797 76.34297852 96.37496094 75.67814453 95.51367188 74.99316406 C91.59309896 71.88442695 87.64023923 68.81765829 83.6875 65.75 C82.93694336 65.16621582 82.18638672 64.58243164 81.41308594 63.98095703 C74.96083017 58.96269316 68.48442307 53.97660932 62 49 C59.83289153 47.33390747 57.66645047 45.66694801 55.5 44 C54.41667876 43.16665095 53.33334544 42.33331759 52.25 41.5 C50.08333333 39.83333333 47.91666667 38.16666667 45.75 36.5 C45.21415283 36.08782227 44.67830566 35.67564453 44.1262207 35.25097656 C43.03876999 34.4144509 41.95136793 33.57786197 40.86401367 32.74121094 C38.21906213 30.70620712 35.57318888 28.67243467 32.92578125 26.640625 C31.89839844 25.85171875 30.87101562 25.0628125 29.8125 24.25 C29.29494141 23.85288818 28.77738281 23.45577637 28.24414062 23.04663086 C24.93448153 20.50245429 21.64083364 17.93876669 18.35546875 15.36328125 C17.1502356 14.4201709 17.1502356 14.4201709 15.9206543 13.45800781 C14.33821021 12.21886551 12.75756412 10.97742273 11.17895508 9.73339844 C8.16792534 7.37725852 5.26799611 5.1578276 1.96875 3.21484375 C1.3190625 2.81394531 0.669375 2.41304687 0 2 C0 1.34 0 0.68 0 0 Z " fill="#58FCFE" transform="translate(383,139)"/>
<path d="M0 0 C0.80983841 -0.00014603 1.61967682 -0.00029205 2.45405579 -0.0004425 C5.13785456 0.00025562 7.82158441 0.00804335 10.50537109 0.01586914 C12.36339276 0.01773368 14.22141492 0.01915741 16.07943726 0.02015686 C20.97523348 0.02397924 25.87100014 0.03380716 30.76678467 0.04486084 C35.76037191 0.05508095 40.75396391 0.05965577 45.74755859 0.06469727 C55.54965493 0.07542966 65.35172931 0.09250275 75.15380859 0.11352539 C73.82297629 4.1060223 71.24280392 5.41060951 67.90380859 7.67602539 C66.60689084 8.57904491 65.31134495 9.48403749 64.01708984 10.39086914 C63.36305176 10.8483252 62.70901367 11.30578125 62.03515625 11.77709961 C58.79844494 14.07631551 55.67064751 16.51290291 52.53466797 18.9465332 C51.99003906 19.36902344 51.44541016 19.79151367 50.88427734 20.22680664 C50.30339355 20.67749512 49.72250977 21.12818359 49.12402344 21.5925293 C45.06673335 24.72473714 40.98284781 27.82223338 36.90380859 30.92602539 C35.07953071 32.31527066 33.25531173 33.70459328 31.43115234 35.09399414 C30.09479736 36.11178955 30.09479736 36.11178955 28.73144531 37.15014648 C18.38930535 45.02772648 8.07867528 52.94072067 -2.16918945 60.94067383 C-7.83849703 65.35568798 -13.57290098 69.67697234 -19.3347168 73.97021484 C-24.60071484 77.90345616 -29.75645761 81.95364681 -34.84619141 86.11352539 C-35.50619141 85.78352539 -36.16619141 85.45352539 -36.84619141 85.11352539 C-36.84619141 57.72352539 -36.84619141 30.33352539 -36.84619141 2.11352539 C-27.93619141 1.78352539 -19.02619141 1.45352539 -9.84619141 1.11352539 C-6.7286003 -0.44527016 -3.42104655 -0.01599593 0 0 Z " fill="#59FDFE" transform="translate(565.84619140625,138.886474609375)"/>
<path d="M0 0 C-0.1451001 0.96035156 -0.2902002 1.92070312 -0.43969727 2.91015625 C-4.72006558 31.2599091 -8.88205679 59.62623252 -13 88 C-16.65505922 89.05776829 -18.44452914 88.77988135 -22.04296875 87.4453125 C-23.51769653 86.90112671 -23.51769653 86.90112671 -25.0222168 86.34594727 C-26.06676025 85.94303467 -27.11130371 85.54012207 -28.1875 85.125 C-29.26233643 84.7137085 -30.33717285 84.30241699 -31.44458008 83.87866211 C-46.15744828 78.12231139 -58.86780352 71.10730372 -71 61 C-71.77730469 60.37480469 -72.55460937 59.74960937 -73.35546875 59.10546875 C-74.95299433 57.79492381 -76.48707894 56.40736843 -78 55 C-78 54.34 -78 53.68 -78 53 C-78.66 53 -79.32 53 -80 53 C-80 52.34 -80 51.68 -80 51 C-80.66 51 -81.32 51 -82 51 C-82 50.34 -82 49.68 -82 49 C-82.66 49 -83.32 49 -84 49 C-84 48.34 -84 47.68 -84 47 C-84.66 47 -85.32 47 -86 47 C-88 44 -88 44 -87.89672852 41.98339844 C-86.67057127 39.27136428 -85.26835834 38.64931069 -82.65234375 37.265625 C-81.74556885 36.77827881 -80.83879395 36.29093262 -79.90454102 35.78881836 C-78.92541748 35.2810083 -77.94629395 34.77319824 -76.9375 34.25 C-75.93323975 33.71705322 -74.92897949 33.18410645 -73.89428711 32.63500977 C-70.93785314 31.07336503 -67.97164606 29.53246554 -65 28 C-64.26168945 27.61763184 -63.52337891 27.23526367 -62.76269531 26.84130859 C-58.20722473 24.49369721 -53.6110453 22.23606074 -49 20 C-47.73881348 19.38390869 -47.73881348 19.38390869 -46.45214844 18.75537109 C-35.47061822 13.3976206 -24.42126811 8.20107353 -13.25 3.25 C-12.26765381 2.80736816 -11.28530762 2.36473633 -10.27319336 1.90869141 C-9.3631958 1.51085449 -8.45319824 1.11301758 -7.515625 0.703125 C-6.71415039 0.34895508 -5.91267578 -0.00521484 -5.08691406 -0.37011719 C-3 -1 -3 -1 0 0 Z " fill="#59FCFD" transform="translate(363,372)"/>
<path d="M0 0 C3.72572131 0.69747463 6.87271714 1.68134008 10.33984375 3.23046875 C11.38720703 3.69630371 12.43457031 4.16213867 13.51367188 4.64208984 C14.64353516 5.1520752 15.77339844 5.66206055 16.9375 6.1875 C18.12537109 6.72068848 19.31324219 7.25387695 20.53710938 7.80322266 C24.36312746 9.52441134 28.18207975 11.26093847 32 13 C32.62416809 13.28373474 33.24833618 13.56746948 33.89141846 13.85980225 C52.56336775 22.35169414 70.88168069 31.38196022 89 41 C89 45 89 45 87.41796875 47.04296875 C81.52962436 52.70444173 75.41712284 57.94728599 69 63 C67.69869141 64.07894531 67.69869141 64.07894531 66.37109375 65.1796875 C54.19749294 74.91164149 39.92105413 81.81403622 25.375 87.25 C24.57570068 87.54986816 23.77640137 87.84973633 22.95288086 88.15869141 C17.3898555 90.12995183 17.3898555 90.12995183 14 89 C13.13769727 85.9676091 12.52475782 83.0992348 12 80 C11.82130371 78.95222382 11.64260742 77.90444763 11.45849609 76.82492065 C10.84666664 73.11426779 10.26390869 69.39991067 9.6875 65.68359375 C9.4711296 64.29986263 9.25457313 62.9161606 9.0378418 61.53248596 C8.5855465 58.64067686 8.1352814 55.74856126 7.68652344 52.85620117 C7.11871516 49.19738532 6.54620268 45.53932515 5.97215271 41.88148403 C5.52415952 39.023688 5.07858756 36.16551824 4.63369751 33.30723763 C4.32368484 31.31786754 4.01185202 29.32878135 3.69995117 27.33970642 C2.29255525 18.24496669 1.09794307 9.13615251 0 0 Z " fill="#59FCFD" transform="translate(661,371)"/>
<path d="M0 0 C8.61478889 -0.06966222 17.22945911 -0.12289325 25.84446049 -0.15543652 C29.84522041 -0.17105956 33.84578692 -0.19223588 37.84643555 -0.22631836 C41.71086452 -0.25903248 45.57510802 -0.27687827 49.43966484 -0.28463173 C50.91039383 -0.2901537 52.38111323 -0.3009367 53.85176277 -0.31719017 C55.9197049 -0.33912569 57.98689098 -0.34196036 60.05493164 -0.34057617 C61.81698692 -0.35056892 61.81698692 -0.35056892 63.61463928 -0.36076355 C68.71983586 0.18327562 72.65725259 1.62096212 76.3125 5.375 C79.45206916 10.25877425 80.24859023 14.00493419 80.22705078 19.80981445 C80.22734283 20.47378738 80.22763489 21.13776031 80.22793579 21.82185364 C80.2265496 24.00246543 80.21102239 26.18272962 80.1953125 28.36328125 C80.19157983 29.88070997 80.18873406 31.39814112 80.18673706 32.91557312 C80.17912055 36.89896359 80.15948923 40.88220698 80.1373291 44.86553955 C80.11682786 48.934428 80.10772621 53.00334035 80.09765625 57.07226562 C80.07624134 65.0482444 80.04212949 73.02410387 80 81 C77 81 77 81 74.765625 79.09375 C73.93546875 78.2378125 73.1053125 77.381875 72.25 76.5 C71.43015625 75.6646875 70.6103125 74.829375 69.765625 73.96875 C67.79377376 71.89177125 65.93082413 69.74587075 64.078125 67.5625 C58.25574931 60.86407973 51.80458182 54.73882755 45.5 48.5 C31.0056734 34.15684343 31.0056734 34.15684343 25.82958984 28.04785156 C23.34850683 25.27078667 20.71244522 22.65724631 18.06640625 20.0390625 C17.53892792 19.5170929 17.01144958 18.99512329 16.46798706 18.45733643 C14.27229253 16.28940818 12.07289697 14.12531415 9.86938477 11.96533203 C8.24325081 10.36921101 6.62324105 8.76707677 5.00390625 7.1640625 C4.50089493 6.6745108 3.99788361 6.18495911 3.47962952 5.68057251 C2.28138007 4.49116463 1.13516637 3.24975604 0 2 C0 1.34 0 0.68 0 0 Z " fill="#59FCFD" transform="translate(691,139)"/>
<path d="M0 0 C0.64461182 -0.00029205 1.28922363 -0.00058411 1.95336914 -0.00088501 C4.06361814 0.00049763 6.17350483 0.01600768 8.28369141 0.03173828 C9.75485033 0.03547222 11.22601176 0.03831739 12.69717407 0.04031372 C16.55396488 0.04792023 20.41060312 0.06754278 24.26733398 0.08972168 C28.20896339 0.11024465 32.15061763 0.11932919 36.09228516 0.12939453 C43.81501068 0.15079175 51.53761085 0.18489129 59.26025391 0.22705078 C57.73421976 3.44335219 56.1622462 5.51474377 53.57275391 7.97705078 C50.92141746 10.50618134 48.46832266 13.1206557 46.08447266 15.89892578 C41.12278896 21.6199085 35.68148433 26.85196934 30.28759766 32.16064453 C25.97470085 36.43200461 21.84452695 40.76810669 17.89111328 45.37353516 C15.31785947 48.29810745 12.54516885 51.00595419 9.76025391 53.72705078 C6.32987395 57.11484738 2.93740916 60.47927167 -0.17724609 64.16455078 C-3.61410849 68.20330024 -7.32314175 71.96038779 -11.05224609 75.72705078 C-11.98798462 76.68212524 -11.98798462 76.68212524 -12.94262695 77.65649414 C-13.53180908 78.24696533 -14.12099121 78.83743652 -14.72802734 79.44580078 C-15.25952393 79.98140625 -15.79102051 80.51701172 -16.33862305 81.06884766 C-17.73974609 82.22705078 -17.73974609 82.22705078 -19.73974609 82.22705078 C-19.80939849 73.35150279 -19.86263446 64.47604957 -19.89518261 55.60028744 C-19.91080775 51.47846223 -19.93198799 47.35682466 -19.96606445 43.23510742 C-19.99877096 39.25396962 -20.0166228 35.27301179 -20.02437782 31.29174995 C-20.02990114 29.77636446 -20.04068679 28.26098829 -20.05693626 26.74567986 C-20.07886152 24.61547795 -20.08170686 22.4860103 -20.08032227 20.35571289 C-20.0869841 19.14547958 -20.09364594 17.93524628 -20.10050964 16.68833923 C-19.5838632 11.73145713 -18.03598282 7.88087005 -14.92724609 3.91455078 C-10.37908826 0.40597188 -5.59918425 -0.02145281 0 0 Z " fill="#59FCFE" transform="translate(272.73974609375,138.77294921875)"/>
<path d="M0 0 C0.33 0 0.66 0 1 0 C1.33 21.78 1.66 43.56 2 66 C3.485 65.01 3.485 65.01 5 64 C5.99 64 6.98 64 8 64 C8.33 63.01 8.66 62.02 9 61 C9.99 61.33 10.98 61.66 12 62 C8.83525695 65.25516428 5.67247209 68.32008793 2 71 C1.34 71 0.68 71 0 71 C0 47.57 0 24.14 0 0 Z " fill="#7EFEFE" transform="translate(529,456)"/>
<path d="M0 0 C7.92 3.96 7.92 3.96 16 8 C16 12 16 12 14.46875 13.703125 C13.8190625 14.21359375 13.169375 14.7240625 12.5 15.25 C11.8503125 15.77078125 11.200625 16.2915625 10.53125 16.828125 C9.77328125 17.40820312 9.77328125 17.40820312 9 18 C9.5881668 14.97514219 10.24070528 11.98613386 11 9 C10.45730469 8.66226562 9.91460938 8.32453125 9.35546875 7.9765625 C8.64003906 7.53054688 7.92460938 7.08453125 7.1875 6.625 C6.47980469 6.18414062 5.77210938 5.74328125 5.04296875 5.2890625 C3.34567961 4.21811524 1.66985642 3.11323761 0 2 C0 1.34 0 0.68 0 0 Z " fill="#69EFF0" transform="translate(734,404)"/>
<path d="M0 0 C-1.28519565 2.86697492 -2.57129254 4.97607712 -5 7 C-5.66 7 -6.32 7 -7 7 C-7.268125 7.61875 -7.53625 8.2375 -7.8125 8.875 C-9 11 -9 11 -12 13 C-12 10 -12 10 -9.8828125 7.51953125 C-8.97273438 6.62621094 -8.06265625 5.73289063 -7.125 4.8125 C-6.22007812 3.91144531 -5.31515625 3.01039063 -4.3828125 2.08203125 C-2 0 -2 0 0 0 Z " fill="#5DF5F7" transform="translate(284,235)"/>
<path d="M0 0 C2.97 0 5.94 0 9 0 C8.67 2.31 8.34 4.62 8 7 C6.66144944 6.21718695 5.32926356 5.42348123 4 4.625 C3.2575 4.18414062 2.515 3.74328125 1.75 3.2890625 C1.1725 2.86367187 0.595 2.43828125 0 2 C0 1.34 0 0.68 0 0 Z " fill="#5FF5F6" transform="translate(383,139)"/>
<path d="M0 0 C0.99 0.33 1.98 0.66 3 1 C-0.16474305 4.25516428 -3.32752791 7.32008793 -7 10 C-7.66 10 -8.32 10 -9 10 C-8.62005832 7.24542282 -8.1926367 6.17979426 -6.125 4.25 C-4 3 -4 3 -1 3 C-0.67 2.01 -0.34 1.02 0 0 Z " fill="#7FF4F4" transform="translate(538,517)"/>
<path d="M0 0 C-1.3418344 4.02550319 -3.4227573 4.88285636 -7 7 C-7.66 7 -8.32 7 -9 7 C-8.6875 4.625 -8.6875 4.625 -8 2 C-4.77208445 -0.1519437 -3.71599191 -0.20086443 0 0 Z " fill="#5EF2F3" transform="translate(641,139)"/>
<path d="M0 0 C0.33 0 0.66 0 1 0 C1 4.62 1 9.24 1 14 C-1.475 13.01 -1.475 13.01 -4 12 C-3.01 11.34 -2.02 10.68 -1 10 C-0.41810734 7.57478506 -0.41810734 7.57478506 -0.3125 4.875 C-0.21388672 3.50988281 -0.21388672 3.50988281 -0.11328125 2.1171875 C-0.07589844 1.41851562 -0.03851563 0.71984375 0 0 Z " fill="#68FBFB" transform="translate(496,404)"/>
<path d="M0 0 C0.33 0 0.66 0 1 0 C1 2.31 1 4.62 1 7 C2.98 7.495 2.98 7.495 5 8 C4.01 9.485 4.01 9.485 3 11 C2.01 10.67 1.02 10.34 0 10 C0 6.7 0 3.4 0 0 Z " fill="#66EBEA" transform="translate(392,310)"/>
<path d="M0 0 C1.32 0.33 2.64 0.66 4 1 C2.37660195 2.70884005 0.70680947 4.37446717 -1 6 C-1.66 6 -2.32 6 -3 6 C-2.67 4.68 -2.34 3.36 -2 2 C-1.34 2 -0.68 2 0 2 C0 1.34 0 0.68 0 0 Z " fill="#77EFEF" transform="translate(544,402)"/>
<path d="M0 0 C-1.37154504 2.95409701 -2.98863724 5.44008376 -5 8 C-5.66 7.01 -6.32 6.02 -7 5 C-2.25 0 -2.25 0 0 0 Z " fill="#60EFF0" transform="translate(549,248)"/>
<path d="M0 0 C-1.62339805 1.70884005 -3.29319053 3.37446717 -5 5 C-5.66 5 -6.32 5 -7 5 C-7.33 4.01 -7.66 3.02 -8 2 C-4.77208445 -0.1519437 -3.71599191 -0.20086443 0 0 Z " fill="#80EFEF" transform="translate(540,409)"/>
<path d="M0 0 C5.75 1.875 5.75 1.875 8 3 C8 3.99 8 4.98 8 6 C5.0280615 4.87548273 2.66559313 3.77706209 0 2 C0 1.34 0 0.68 0 0 Z " fill="#66E8E8" transform="translate(355,312)"/>
<path d="M0 0 C2.97 1.98 2.97 1.98 6 4 C5.34 4.66 4.68 5.32 4 6 C4 5.34 4 4.68 4 4 C2.35 4 0.7 4 -1 4 C-0.67 2.68 -0.34 1.36 0 0 Z " fill="#5AE4E6" transform="translate(392,375)"/>
<path d="M0 0 C0.33 0.66 0.66 1.32 1 2 C1.66 2 2.32 2 3 2 C3.66 3.32 4.32 4.64 5 6 C2 6 2 6 0.3125 4.5 C-0.120625 4.005 -0.55375 3.51 -1 3 C-0.67 2.01 -0.34 1.02 0 0 Z " fill="#59E1E3" transform="translate(766,214)"/>
</svg>
